<svg width="38" height="37" viewBox="0 0 38 37" fill="none" xmlns="http://www.w3.org/2000/svg">
<g id="feather:upload-cloud">
<g id="Group">
<path id="Vector" d="M25.039 24.8344L19 18.7955L12.961 24.8344" stroke="black" stroke-opacity="0.4" stroke-width="1.50974" stroke-linecap="round" stroke-linejoin="round"/>
<path id="Vector_2" d="M19 18.7955V32.3831" stroke="black" stroke-opacity="0.4" stroke-width="1.50974" stroke-linecap="round" stroke-linejoin="round"/>
<path id="Vector_3" d="M31.6667 28.4427C33.1392 27.6399 34.3025 26.3697 34.9729 24.8324C35.6432 23.295 35.7826 21.5783 35.3689 19.953C34.9552 18.3277 34.0121 16.8864 32.6883 15.8567C31.3646 14.8269 29.7356 14.2674 28.0584 14.2662H26.1562C25.6992 12.4987 24.8475 10.8578 23.665 9.46677C22.4826 8.07579 21.0002 6.97096 19.3293 6.23535C17.6584 5.49974 15.8425 5.15249 14.018 5.21971C12.1936 5.28693 10.4082 5.76686 8.79593 6.62344C7.1837 7.48001 5.78662 8.69093 4.70974 10.1652C3.63286 11.6394 2.90419 13.3386 2.57853 15.1349C2.25286 16.9313 2.33867 18.7782 2.8295 20.5366C3.32033 22.295 4.2034 23.9193 5.41234 25.2874" stroke="black" stroke-opacity="0.4" stroke-width="1.50974" stroke-linecap="round" stroke-linejoin="round"/>
<path id="Vector_4" d="M25.039 24.8344L19 18.7955L12.961 24.8344" stroke="black" stroke-opacity="0.4" stroke-width="1.50974" stroke-linecap="round" stroke-linejoin="round"/>
</g>
</g>
</svg>
